<?xml version="1.0" encoding="utf-8"?>
<!-- Generator: Adobe Illustrator 28.1.0, SVG Export Plug-In . SVG Version: 6.00 Build 0)  -->
<svg version="1.1" id="Layer_1" xmlns="http://www.w3.org/2000/svg" xmlns:xlink="http://www.w3.org/1999/xlink" x="0px" y="0px"
	 viewBox="0 0 300 450" style="enable-background:new 0 0 300 450;" xml:space="preserve">
<style type="text/css">
	.st0{fill:#0071BC;}
	.st1{fill:#FFFFFF;}
	.st2{fill:#1A1A1A;}
	.st3{fill:#333333;}
	.st4{fill:#666666;}
	.st5{fill:#4D4D4D;}
</style>
<g>
	<path class="st0" d="M103,30.2h1c0,0-17.6,11.5-19.6,23.5s-14.4,72-16.5,79c-2.1,6.9-8,21.8,7.3,38.6c0.3,0.2,0.5,0.5,0.8,0.7
		c19.3,12.9,23.2,22.7,23.2,22.7s7.9,21,2,35c-5.7,13.5,7.8,37.2,8.8,38.9c0,0.1,0.1,0.1,0.1,0.2c1.7,3.4,45.3,89.4,51.1,114.9
		c5.4,23.7,14.4,41.9,16,45c0.5,0,0.7,0,0.7,0l1.4,1.4c-0.5,0.4-0.7,0.6-0.7,0.6l-2-2c0,0-0.3,0-0.7,0c-1.6-3.1-10.8-21.4-16.3-45
		c-5.9-25.5-50.2-111.4-51.9-114.9c0-0.1-0.1-0.1-0.1-0.2c-1-1.7-14.7-25.4-8.9-38.9c6-14-2-35-2-35s-3.9-9.9-23.6-22.7
		c-0.3-0.2-0.5-0.5-0.8-0.7c-15.5-16.8-9.6-31.7-7.5-38.6c2.2-7,14.8-67,16.8-79s12.8-20.1,12.8-20.1"/>
	<path class="st1" d="M152,393.2l20.5,35.6c-5.3-0.1-14-0.9-14-5.1c-6-3-5-4-11-14s-41-92-41-92l-7.2-10.5l12.7,5L152,393.2z"/>
	<path class="st2" d="M70.5,265.7c-6.7-0.2-12.5-0.6-19,0c-53.4,1-71.4-74.2-24.5-97.9c0-0.5,0.5-129.6,0-153.8
		c35.1,20.9,54.1,17.1,67.3,19.6c0,0-10.8,8.1-12.8,20.1s-14.6,72-16.8,79c-14.5,34.4,24.5,45.3,31.8,62c12.6,31.1-10.8,38.6,11,74
		c0,0,46,89,52,115c5.5,23.7,14.6,41.9,16.3,45c-0.7,0-1.9,0-3.2,0c-2.6-0.1-11.5,0.4-13.5-3.6"/>
	<path class="st3" d="M27,167.8v-0.6c0,0,0.2-61.1,0.2-107.1l31.3,77.1c3.7,9-0.7,19.4-9.7,23l-25.6,10.4c-0.6,0.2-1.2,0.5-1.8,0.6
		C23.2,170,25.1,168.8,27,167.8z"/>
	<path class="st4" d="M27.2,57.7c0-1.9,0-3.7,0-5.5C28.1,46.3,32,40.9,38,38.5l23.7-9.6c9.7,2.4,17.7,3.3,21.5,3.7
		c1.4,1.5,2.6,3.3,3.4,5.3l1,2.5c-2.6,3.4-5.2,8-6.1,13.3c-2,12-14.6,72-16.8,79c-0.9,2.8-2.3,6.8-2.8,11.7L28.3,61.6
		C27.8,60.3,27.4,59,27.2,57.7z"/>
	<path class="st5" d="M94.7,176.8l25.6-10.4c9-3.7,13.4-14,9.7-23L93.6,53.8c-3.7-9-14-13.4-23-9.7L45,54.5c-9,3.7-13.4,14-9.7,23
		l36.4,89.6C75.3,176.1,85.7,180.4,94.7,176.8z"/>
	<path class="st1" d="M103.1,29.7c2.6-0.9,9.1,0,12.9,0.6c0,0.1-0.1,0.2-0.1,0.3c7,2.7,74.2,17.3,85.5,19.7v0.4
		c24.7,1,46.5,171.2,52.1,210c2.2,26.6-4.6,75-10.2,99.3c-4.2,20.5-16.5,40.6-34.1,56.7c-23,19.8-28.4,15-31.5,12c0,0-0.3,0-0.7,0
		c-1.6-3.1-10.6-21.4-16-45c-5.9-26-51.1-115-51.1-115c-21.4-35.3,1.5-43.1-10.8-74c-7.3-16.8-45.6-27.7-31.3-62
		c2.1-7,14.6-67,16.5-79c2-12,7.6-17.5,11.6-20.1"/>
	<path class="st3" d="M200.5,50.7c0,0-77.2-17.2-84.6-20.1c2.2-8.8,3.9-9.9,3.9-9.9s18.1-5,39.4,0s40.3,19,40.3,19L200.5,50.7z"/>
	<path class="st5" d="M159.3,20.7c21.3,5,40.3,19,40.3,19l0.1,1c-5.9-0.6-13.7-1.8-23.8-4.1c-22.6-5.2-42.2-10.5-55.8-15.9
		C121.9,20.2,139.2,15.9,159.3,20.7z"/>
	<circle class="st5" cx="51.5" cy="213.7" r="51.5"/>
	<circle class="st4" cx="53" cy="215.2" r="30"/>
</g>
</svg>
