<svg id="Layer_1" data-name="Layer 1" xmlns="http://www.w3.org/2000/svg" viewBox="0 0 202 133"><defs><style>.cls-1{fill:#4d4d4d}.cls-1,.cls-2,.cls-3,.cls-4{stroke-width:0}.cls-2{fill:#b3b3b3}.cls-3{fill:#333}.cls-4{fill:#fff}</style></defs><path d="M0 0h64v64H0zm0 69h64v64H0zm69 0h64v64H69zm69 0h64v64h-64z" style="fill:#0ff;stroke-width:0"/><g style="opacity:.5"><path class="cls-1" d="M0 0h64v64H0z"/><path class="cls-4" d="M0 64V0h64"/><path class="cls-3" d="M61 3v58H3V3h58m3-3H0v64h64V0Z"/><path class="cls-2" d="M14 14h36v36H14z"/><path class="cls-1" d="M0 69h64v64H0z"/><path class="cls-4" d="M0 133V69h64"/><path class="cls-3" d="M61 72v58H3V72h58m3-3H0v64h64V69Z"/><path class="cls-2" d="M14 83h36v36H14z"/><path class="cls-1" d="M69 69h64v64H69z"/><path class="cls-4" d="M69 133V69h64"/><path class="cls-3" d="M130 72v58H72V72h58m3-3H69v64h64V69Z"/><path class="cls-2" d="M83 83h36v36H83z"/><path class="cls-1" d="M138 69h64v64h-64z"/><path class="cls-4" d="M138 133V69h64"/><path class="cls-3" d="M199 72v58h-58V72h58m3-3h-64v64h64V69Z"/><path class="cls-2" d="M152 83h36v36h-36z"/></g></svg>